#!OML:ASF E:/inclinewalkrobotboard/Project1/Captureday1/Session1/subject1.ASF
:FULLY-SPECIFIED
:DEGREES
176
root 0 0 0 -1.1002653395803357 -2.705700576762137 -2.446251937936755
lowerback 9.44443040420935 0.3495847824925705 0.6748397101551209
upperback 0.00988597285564019 0.6817884716344519 1.735857568096523
thorax -5.182506427235888 0.3539397623471665 1.3495237926843768
lowerneck -16.49045818796804 -2.9798595244998722 -1.9435906636635685
upperneck 19.86441292281822 -3.8160251862612617 0.6834509329612413
head 9.047433817455516 -1.8525800280716984 0.07614862862553506
rclavicle -6.601587300796449E-16 -4.803410345207986E-16
rhumerus -23.861864618823944 -18.859339836298716 -74.99194003425595
rradius 27.036819868179222
rwrist 6.4259048359599795
rhand -15.85890256873239 21.008458899183847
rfingers 7.125020000000034
rthumb 10.31519794453386 -8.476092490964735
lclavicle -6.615948286186102E-16 -3.1482101260922595E-16
lhumerus -29.755447186346274 1.4105107300739954 78.18458817749135
lradius 28.72217740968621
lwrist 3.223819543594974
lhand -23.930525612317314 23.32054111728563
lfingers 7.125020000000041
lthumb 2.48950551958281 53.0111388236262
rfemur -2.5640303596335485 -8.062303408453417 14.075640263223178
rtibia 38.97878097594588
rfoot -8.980399386771062 -8.18387754242717
rtoes 6.334281305265275
lfemur -13.976608513769307 -0.5886660423862686 -20.72667289324069
ltibia 34.23221825508372
lfoot -9.089502403523126 -0.5578194385414115
ltoes -2.1401328936916677
177
root 0 0 0 -1.0461462163673119 -2.7355964378666364 -2.459580925406315
lowerback 9.417472829620827 0.35109257104952585 0.6709399345563125
upperback -0.008375364676803443 0.6831521281906208 1.7367779659331122
thorax -5.187042050910578 0.3548691947495977 1.353237036239526
lowerneck -16.47971278506224 -2.9732882062157433 -1.939429472145207
upperneck 19.870978931226908 -3.8088335069477197 0.6893918236538954
head 9.048291974426705 -1.8485551376327103 0.0780305272845423
rclavicle -6.593279826285931E-16 -4.785039975387482E-16
rhumerus -23.76070973968769 -18.868705313138445 -74.93076149065823
rradius 27.038093974757132
rwrist 6.474973432030694
rhand -15.814854017617009 20.97247653672912
rfingers 7.125020000000033
rthumb 10.357261629396366 -8.506622620338165
lclavicle -6.599125020354422E-16 -3.1689285056111123E-16
lhumerus -29.70602059940161 1.421572745813167 78.10588815048905
lradius 28.734639528140892
lwrist 3.1863552338581034
lhand -23.874556619987427 23.322348034764214
lfingers 7.12502000000004
lthumb 2.5436712714714247 53.0066446260592
rfemur -2.384903037427975 -8.279881070767004 13.862127552919944
rtibia 38.989763756639924
rfoot -9.003512094837113 -8.211998899297836
rtoes 6.376352139750882
lfemur -14.085762895005637 -0.5565829366642063 -20.750720756592997
ltibia 34.27332960791925
lfoot -9.124570183761096 -0.5053971264089512
ltoes -2.097897738925141
178
root 0 0 0 -1.002012639071065 -2.756739581845695 -2.4694060802541227
lowerback 9.394774012046177 0.35180705041140115 0.6672950266383935
upperback -0.023617888706519707 0.6837863557328347 1.7379506052451092
thorax -5.190539547858149 0.35534017862246026 1.3568234200137756
lowerneck -16.470301130607147 -2.9685901277770546 -1.9365187099720291
upperneck 19.877731163820872 -3.803703516153778 0.6939409703708885
head 9.049487535018924 -1.8458692175331524 0.07945066945166845
rclavicle -6.582381125703769E-16 -4.794372270420419E-16
rhumerus -23.68865853781977 -18.876031564116673 -74.88579870787254
rradius 27.039964266197515
rwrist 6.507677926063476
rhand -15.784439863437566 20.947428126958236
rfingers 7.125020000000033
rthumb 10.38628985866026 -8.527925150081312
lclavicle -6.585938981698695E-16 -3.187240666633022E-16
lhumerus -29.664627895737475 1.4307796266255535 78.04073174553875
lradius 28.74535117336622
lwrist 3.155590410623864
lhand -23.828818531081172 23.32376153028793
lfingers 7.12502000000004
lthumb 2.588152379238558 53.0028854430635
rfemur -2.215933213093237 -8.48449515343394 13.66296219842998
rtibia 38.9977262555431
rfoot -9.026407878529094 -8.238397846484531
rtoes 6.414794711410455
lfemur -14.168335625071151 -0.5327843119054467 -20.76950538336426
ltibia 34.30191155051714
lfoot -9.152930734003094 -0.46524084298100377
ltoes -2.0662609811845734
179
root 0 0 0 -0.9737110077413291 -2.769224480985695 -2.4751961487507845
lowerback 9.379960501628776 0.35210155731557513 0.6647646858048728
upperback -0.0334630545074841 0.6840232626786621 1.738830070447413
thorax -5.1926945440919114 0.35556070043774873 1.3593427239222629
lowerneck -16.464072806882715 -2.965792460796224 -1.934806741737063
upperneck 19.88241704027103 -3.800603786890831 0.6967709042913466
head 9.050377437055257 -1.8443190594293655 0.08033794743934031
rclavicle -6.576025535956945E-16 -4.799472079435585E-16
rhumerus -23.63751450648752 -18.881180344135853 -74.85394730517427
rradius 27.04124175196112
rwrist 6.5311964400964975
rhand -15.762711232277777 20.929554520314248
rfingers 7.125020000000032
rthumb 10.407025531067466 -8.543126180278472
lclavicle -6.575169016259747E-16 -3.201224334730143E-16
lhumerus -29.63240743973003 1.4380061635551318 77.98979321453614
lradius 28.753675020815756
lwrist 3.1314396972425076
lhand -23.79295863110974 23.324851991661806
lfingers 7.125020000000039
lthumb 2.6229765440904416 52.99993529277036
rfemur -2.091472839940849 -8.635677634414918 13.515569134962902
rtibia 39.00461081518539
rfoot -9.043025401568435 -8.25789637657262
rtoes 6.443531986565887
lfemur -14.22946807335736 -0.5151163089015967 -20.78335485806375
ltibia 34.323345040157434
lfoot -9.173731749454841 -0.43556887991611504
ltoes -2.0428446141858423
